<?xml version="1.0" standalone="no"?>
<!DOCTYPE svg PUBLIC "-//W3C//DTD SVG 20010904//EN"
 "http://www.w3.org/TR/2001/REC-SVG-20010904/DTD/svg10.dtd">
<svg version="1.0" xmlns="http://www.w3.org/2000/svg"
 width="474.000000pt" height="474.000000pt" viewBox="0 0 474.000000 474.000000"
 preserveAspectRatio="xMidYMid meet">

<g transform="translate(0.000000,474.000000) scale(0.100000,-0.100000)"
fill="#000000" stroke="none">
<path d="M2470 4395 c-14 -16 -7 -45 11 -45 8 0 8 4 -1 15 -10 12 -10 15 4 15
9 0 16 7 16 15 0 19 -14 19 -30 0z"/>
<path d="M3034 4075 c0 -165 2 -234 3 -153 2 81 2 216 0 300 -1 84 -3 18 -3
-147z"/>
<path d="M2445 4340 c3 -5 8 -10 11 -10 2 0 4 5 4 10 0 6 -5 10 -11 10 -5 0
-7 -4 -4 -10z"/>
<path d="M2454 3880 c0 -80 2 -112 3 -72 2 39 2 105 0 145 -1 39 -3 7 -3 -73z"/>
<path d="M2965 3700 c3 -5 8 -10 11 -10 2 0 4 5 4 10 0 6 -5 10 -11 10 -5 0
-7 -4 -4 -10z"/>
<path d="M3196 3527 c3 -10 9 -15 12 -12 3 3 0 11 -7 18 -10 9 -11 8 -5 -6z"/>
<path d="M3214 3488 c19 -63 26 -298 33 -1193 10 -1298 9 -1588 -9 -1639 -15
-45 -48 -71 -98 -80 -31 -5 -33 -4 -17 8 9 7 17 16 17 20 0 4 -8 5 -17 2 -10
-2 -44 -7 -75 -11 -50 -5 -58 -9 -58 -27 0 -19 4 -20 86 -16 l85 4 -6 -38 c-9
-49 8 -98 46 -134 28 -26 36 -29 96 -27 74 1 129 22 157 59 20 27 32 93 23
119 -6 14 -9 13 -27 -2 -11 -10 -20 -26 -20 -36 0 -16 -3 -17 -15 -7 -12 10
-12 15 5 38 32 45 35 77 9 96 -14 9 -18 16 -10 16 8 0 12 2 9 5 -3 3 -31 -9
-63 -26 -31 -17 -71 -31 -89 -31 -17 0 -44 -7 -61 -15 l-30 -15 27 26 c52 50
53 62 53 591 0 270 -4 868 -8 1330 -7 804 -13 943 -39 985 -8 12 -9 12 -4 -2z
m21 -2948 c3 -5 1 -10 -4 -10 -6 0 -11 5 -11 10 0 6 2 10 4 10 3 0 8 -4 11
-10z m-10 -30 c3 -5 1 -10 -4 -10 -6 0 -11 5 -11 10 0 6 2 10 4 10 3 0 8 -4
11 -10z m0 -30 c3 -5 1 -10 -4 -10 -6 0 -11 5 -11 10 0 6 2 10 4 10 3 0 8 -4
11 -10z m205 -14 c0 -11 -19 -15 -25 -6 -3 5 1 10 9 10 9 0 16 -2 16 -4z
m-195 -16 c3 -5 1 -10 -4 -10 -6 0 -11 5 -11 10 0 6 2 10 4 10 3 0 8 -4 11
-10z m175 -20 c0 -5 -4 -10 -10 -10 -5 0 -10 5 -10 10 0 6 5 10 10 10 6 0 10
-4 10 -10z m-150 -4 c0 -3 -4 -8 -10 -11 -5 -3 -10 -1 -10 4 0 6 5 11 10 11 6
0 10 -2 10 -4z"/>
<path d="M3300 3215 c-2 -49 -2 -103 0 -120 1 -16 6 -122 9 -235 l7 -205 3
180 c2 99 3 192 2 208 -1 15 3 27 8 27 6 0 11 -10 11 -22 0 -29 8 -19 13 17 2
17 0 35 -5 42 -6 8 -3 15 11 23 12 6 21 7 21 1 0 -5 -6 -11 -12 -14 -10 -3
-10 -7 -1 -17 6 -7 9 -19 6 -26 -3 -10 3 -14 20 -14 14 0 28 6 30 13 4 10 6
10 6 0 1 -21 21 -15 21 6 0 13 -10 20 -31 25 -23 4 -29 10 -25 21 14 35 18 50
9 38 -6 -8 -14 -9 -23 -3 -12 8 -11 10 5 11 26 2 27 2 48 -6 12 -5 17 -2 17 9
0 11 -9 16 -31 16 -16 0 -28 4 -25 8 2 4 0 14 -6 22 -8 12 -9 12 -4 -3 3 -11
0 -20 -9 -23 -8 -4 -15 -14 -16 -23 0 -10 -2 -11 -6 -3 -8 20 -23 14 -24 -10
-1 -13 -7 15 -14 62 l-12 85 -3 -90z m40 -126 c0 -5 -4 -9 -10 -9 -5 0 -10 7
-10 16 0 8 5 12 10 9 6 -3 10 -10 10 -16z"/>
<path d="M2125 3209 c-237 -5 -213 -5 155 -4 429 2 499 -2 528 -32 20 -19 43
-16 49 8 3 12 11 18 19 15 8 -3 14 1 14 9 0 16 -173 17 -765 4z"/>
<path d="M1280 3189 c0 -5 5 -7 10 -4 6 3 10 8 10 11 0 2 -4 4 -10 4 -5 0 -10
-5 -10 -11z"/>
<path d="M3095 3145 c-4 -24 -3 -61 3 -82 9 -34 10 -30 11 45 1 45 -1 82 -3
82 -3 0 -8 -20 -11 -45z"/>
<path d="M3383 3010 c0 -25 2 -35 4 -22 2 12 2 32 0 45 -2 12 -4 2 -4 -23z"/>
<path d="M3455 3010 c-3 -5 0 -20 6 -32 9 -16 14 -19 17 -9 2 7 -1 17 -8 21
-7 4 -9 13 -6 19 4 6 5 11 2 11 -3 0 -8 -4 -11 -10z"/>
<path d="M3396 2679 c-3 -8 -2 -261 2 -563 7 -512 8 -549 24 -552 10 -1 20 2
24 7 3 5 8 7 12 5 4 -2 7 44 7 102 1 59 5 193 9 297 7 148 5 244 -9 435 -10
135 -18 251 -18 258 0 6 -4 12 -8 12 -4 0 -14 3 -23 6 -9 3 -18 0 -20 -7z"/>
<path d="M3484 2618 c3 -29 6 -74 6 -100 0 -27 5 -48 10 -48 11 0 13 103 4
163 -10 58 -28 45 -20 -15z"/>
<path d="M3312 2150 c-2 -375 9 -1363 15 -1356 2 2 5 97 5 212 1 115 5 198 9
184 l7 -25 1 28 c1 15 -4 27 -10 27 -7 0 -9 73 -7 238 2 130 2 194 -1 142 -3
-52 -8 130 -11 405 -5 497 -5 498 -8 145z"/>
<path d="M1284 2405 c3 -11 6 -26 6 -33 0 -7 5 -10 10 -7 6 4 8 15 5 26 -4 13
-2 18 7 15 16 -5 551 -20 623 -17 28 1 131 -3 230 -8 145 -9 407 -18 588 -21
16 0 26 -4 22 -10 -4 -6 8 -10 30 -10 21 0 34 4 30 10 -3 5 6 12 20 16 14 3
25 12 25 19 0 10 -87 14 -407 19 -225 3 -585 9 -801 13 -390 8 -393 8 -388
-12z"/>
<path d="M3107 2373 c-9 -9 -9 -125 1 -139 4 -7 8 24 9 67 1 81 1 84 -10 72z"/>
<path d="M3495 1770 c3 -5 8 -10 11 -10 2 0 4 5 4 10 0 6 -5 10 -11 10 -5 0
-7 -4 -4 -10z"/>
<path d="M3500 1653 c0 -10 -3 -29 -7 -42 -4 -14 -2 -22 3 -18 10 6 19 77 9
77 -3 0 -5 -8 -5 -17z"/>
<path d="M1284 1628 c3 -13 6 -33 6 -46 0 -14 4 -21 11 -17 6 4 8 13 5 21 -5
14 -19 14 364 -2 91 -4 221 -9 290 -10 69 -1 190 -7 270 -14 80 -7 186 -14
236 -15 51 -1 96 -5 100 -8 5 -2 51 -8 103 -12 52 -4 109 -14 128 -21 32 -14
35 -13 58 12 14 15 25 33 25 40 0 8 6 14 13 15 6 1 1 5 -13 9 -14 4 -83 8
-155 9 -284 2 -1403 47 -1434 57 -10 3 -12 -2 -7 -18z"/>
<path d="M3104 1535 c-3 -19 -2 -56 4 -82 9 -47 10 -47 11 35 1 87 -4 104 -15
47z"/>
<path d="M2748 1303 c18 -2 45 -2 60 0 15 2 0 4 -33 4 -33 0 -45 -2 -27 -4z"/>
<path d="M2808 1173 c6 -2 18 -2 25 0 6 3 1 5 -13 5 -14 0 -19 -2 -12 -5z"/>
<path d="M2773 1153 c15 -2 37 -2 50 0 12 2 0 4 -28 4 -27 0 -38 -2 -22 -4z"/>
<path d="M2728 1133 c18 -2 45 -2 60 0 15 2 0 4 -33 4 -33 0 -45 -2 -27 -4z"/>
<path d="M2688 1113 c6 -2 18 -2 25 0 6 3 1 5 -13 5 -14 0 -19 -2 -12 -5z"/>
<path d="M2628 1073 c12 -2 30 -2 40 0 9 3 -1 5 -23 4 -22 0 -30 -2 -17 -4z"/>
<path d="M2618 1053 c7 -3 16 -2 19 1 4 3 -2 6 -13 5 -11 0 -14 -3 -6 -6z"/>
<path d="M2788 1023 c12 -2 32 -2 45 0 12 2 2 4 -23 4 -25 0 -35 -2 -22 -4z"/>
<path d="M2553 1013 c9 -2 23 -2 30 0 6 3 -1 5 -18 5 -16 0 -22 -2 -12 -5z"/>
<path d="M2748 1003 c17 -2 47 -2 65 0 17 2 3 4 -33 4 -36 0 -50 -2 -32 -4z"/>
<path d="M2723 983 c15 -2 37 -2 50 0 12 2 0 4 -28 4 -27 0 -38 -2 -22 -4z"/>
<path d="M2697 963 c18 -2 50 -2 70 0 21 2 7 4 -32 4 -38 0 -55 -2 -38 -4z"/>
<path d="M2668 943 c18 -2 45 -2 60 0 15 2 0 4 -33 4 -33 0 -45 -2 -27 -4z"/>
<path d="M2648 923 c7 -3 16 -2 19 1 4 3 -2 6 -13 5 -11 0 -14 -3 -6 -6z"/>
<path d="M2623 903 c9 -2 25 -2 35 0 9 3 1 5 -18 5 -19 0 -27 -2 -17 -5z"/>
<path d="M1280 885 c0 -8 4 -15 10 -15 5 0 7 7 4 15 -4 8 -8 15 -10 15 -2 0
-4 -7 -4 -15z"/>
<path d="M2388 893 c6 -2 18 -2 25 0 6 3 1 5 -13 5 -14 0 -19 -2 -12 -5z"/>
<path d="M2798 893 c12 -2 30 -2 40 0 9 3 -1 5 -23 4 -22 0 -30 -2 -17 -4z"/>
<path d="M2588 883 c12 -2 30 -2 40 0 9 3 -1 5 -23 4 -22 0 -30 -2 -17 -4z"/>
<path d="M2783 873 c15 -2 39 -2 55 0 15 2 2 4 -28 4 -30 0 -43 -2 -27 -4z"/>
<path d="M1318 863 c7 -3 16 -2 19 1 4 3 -2 6 -13 5 -11 0 -14 -3 -6 -6z"/>
<path d="M2548 863 c6 -2 18 -2 25 0 6 3 1 5 -13 5 -14 0 -19 -2 -12 -5z"/>
<path d="M2747 853 c18 -2 50 -2 70 0 21 2 7 4 -32 4 -38 0 -55 -2 -38 -4z"/>
<path d="M1418 833 c7 -3 16 -2 19 1 4 3 -2 6 -13 5 -11 0 -14 -3 -6 -6z"/>
<path d="M1487 805 c11 -8 23 -28 25 -44 4 -27 2 -30 -26 -29 -17 0 -36 5 -43
10 -8 6 -15 3 -23 -11 -8 -16 -20 -21 -55 -21 -25 0 -45 -4 -45 -10 0 -5 -7
-10 -15 -10 -16 0 -21 -25 -6 -34 15 -10 19 -69 8 -111 -15 -60 -1 -113 39
-153 l35 -35 75 7 c86 7 119 20 146 56 30 41 34 92 9 142 -26 55 -51 70 -113
70 -42 -1 -48 1 -37 14 6 8 19 12 28 10 9 -3 86 -8 171 -11 85 -3 162 -8 170
-10 12 -4 15 -15 12 -41 -6 -48 24 -111 61 -130 22 -12 46 -14 105 -9 64 6 82
12 105 33 28 27 52 93 43 119 -5 11 0 13 22 9 63 -12 136 -18 268 -21 86 -2
153 -8 176 -17 27 -10 56 -12 105 -7 37 4 69 6 70 6 0 -1 3 -11 5 -22 2 -17
-4 -21 -44 -25 -62 -8 -100 -36 -117 -89 -16 -52 -4 -103 34 -149 30 -36 71
-45 149 -32 65 10 119 42 135 78 13 27 15 112 3 112 -12 0 -42 -34 -42 -48 0
-6 -7 -9 -15 -6 -12 5 -10 12 10 42 14 21 25 51 25 69 0 30 -3 33 -31 33 l-32
0 27 25 c20 18 23 25 11 25 -9 0 -18 7 -21 15 -4 8 -11 12 -18 9 -6 -3 -2 2 8
10 19 16 19 16 -4 16 -22 0 -23 1 -5 13 10 8 15 19 11 25 -4 7 -2 12 3 12 6 0
11 5 11 11 0 7 -18 10 -50 7 -28 -1 -50 0 -50 5 0 4 -8 7 -17 7 -14 0 -15 -2
-4 -9 9 -6 -12 -11 -60 -16 -41 -4 -84 -13 -96 -21 -26 -16 -37 -18 -28 -4 11
17 -7 11 -21 -7 -12 -16 -13 -15 -14 12 0 59 25 72 172 85 62 5 119 10 126 10
21 0 13 15 -15 27 -16 6 -50 10 -78 8 -55 -3 -142 -22 -111 -24 11 0 16 -4 13
-7 -4 -4 -19 -1 -35 5 -24 10 -41 9 -90 -3 -33 -9 -78 -16 -101 -16 -23 0 -41
-4 -41 -10 0 -6 -40 -10 -101 -10 -64 0 -98 -4 -94 -10 3 -5 -2 -10 -12 -10
-10 0 -29 -3 -43 -5 -22 -5 -22 -4 -5 4 17 8 16 10 -11 10 -17 1 -47 4 -65 7
-26 4 -30 3 -19 -5 12 -9 11 -11 -8 -11 -13 0 -21 3 -19 8 3 4 -35 7 -85 8
-54 0 -92 5 -96 11 -4 7 -28 10 -57 8 -28 -1 -55 1 -61 6 -6 5 -49 14 -95 19
-46 6 -91 12 -99 13 -8 1 -21 8 -28 15 -7 6 -19 12 -25 12 -6 0 -2 -7 10 -15z
m-41 -230 l25 -26 -23 -19 -23 -19 22 -1 c12 0 23 6 26 13 2 6 6 0 9 -15 6
-33 -16 -99 -39 -115 -30 -23 -69 -15 -97 18 -31 37 -33 59 -6 59 11 0 20 5
20 11 0 7 -10 9 -25 7 -19 -4 -25 -1 -25 13 0 21 11 24 27 8 8 -8 13 -8 18 1
4 7 -1 14 -14 17 -26 7 -26 14 0 47 27 34 71 35 105 1z m123 -60 c0 -5 -4 -3
-9 5 -5 8 -9 22 -9 30 0 16 17 -16 18 -35z m1171 -30 c0 -8 -4 -15 -10 -15 -5
0 -7 7 -4 15 4 8 8 15 10 15 2 0 4 -7 4 -15z m37 -17 c-3 -7 -5 -2 -5 12 0 14
2 19 5 13 2 -7 2 -19 0 -25z m-1197 18 c0 -3 -4 -8 -10 -11 -5 -3 -10 -1 -10
4 0 6 5 11 10 11 6 0 10 -2 10 -4z m1152 -46 c5 0 8 6 8 13 0 8 4 7 10 -3 5
-8 10 -10 10 -5 0 6 4 4 9 -4 13 -20 34 -2 28 26 -4 22 -3 23 14 7 17 -15 17
-17 -9 -40 -28 -24 -16 -32 19 -14 15 9 19 7 19 -5 0 -9 -4 -13 -10 -10 -5 3
-19 1 -30 -5 -16 -9 -25 -8 -38 2 -12 10 -14 10 -8 0 6 -10 1 -11 -18 -6 -20
5 -25 3 -21 -8 3 -8 -3 -23 -15 -33 -24 -22 -26 -35 -4 -35 10 0 14 6 11 15
-4 8 -2 17 4 21 17 10 21 -3 9 -26 -9 -16 -9 -25 -1 -33 8 -8 11 -5 11 10 0
12 5 25 10 28 6 4 10 -5 10 -19 0 -17 6 -26 15 -26 11 0 14 7 10 28 -5 26 -5
27 5 3 8 -19 13 -22 22 -13 9 9 9 15 0 24 -16 16 -15 33 1 19 8 -6 17 -8 21
-4 4 4 -3 15 -15 24 l-23 17 27 -5 c45 -9 26 -72 -29 -98 -31 -15 -37 -15 -68
0 -64 30 -86 135 -40 186 18 20 18 20 33 -6 9 -14 19 -25 23 -25z m178 -70 c0
-5 -2 -10 -4 -10 -3 0 -8 5 -11 10 -3 6 -1 10 4 10 6 0 11 -4 11 -10z"/>
<path d="M1372 573 c2 -10 13 -19 26 -21 17 -3 22 2 22 17 0 23 -15 28 -23 9
-4 -10 -6 -10 -6 0 -1 6 -6 12 -12 12 -6 0 -9 -8 -7 -17z"/>
<path d="M1340 562 c0 -5 7 -16 16 -23 14 -12 16 -11 13 5 -4 20 -29 35 -29
18z"/>
<path d="M1426 554 c-4 -9 -4 -19 -2 -21 8 -8 26 8 26 23 0 19 -16 18 -24 -2z"/>
<path d="M1440 490 c0 -5 9 -10 21 -10 11 0 17 5 14 10 -3 6 -13 10 -21 10 -8
0 -14 -4 -14 -10z"/>
<path d="M1374 440 c-1 -22 3 -37 7 -34 5 3 7 9 4 14 -3 4 4 19 15 31 11 13
19 19 20 12 0 -6 -4 -15 -10 -18 -13 -8 -13 -45 1 -45 6 0 8 9 4 23 -6 20 -5
21 8 5 19 -24 30 -23 17 1 -14 26 -13 38 2 23 14 -14 28 -16 28 -3 0 5 -14 14
-32 20 -24 9 -34 8 -40 -1 -6 -10 -10 -10 -16 -1 -4 7 -8 -5 -8 -27z"/>
<path d="M1345 449 c-10 -15 3 -25 16 -12 7 7 7 13 1 17 -6 3 -14 1 -17 -5z"/>
<path d="M2675 460 c-4 -6 -5 -12 -4 -13 2 -2 11 -8 20 -15 13 -10 15 -8 14
10 -2 24 -20 35 -30 18z"/>
<path d="M2662 418 c6 -18 28 -21 28 -4 0 9 -7 16 -16 16 -9 0 -14 -5 -12 -12z"/>
<path d="M2660 375 c0 -8 7 -15 15 -15 8 0 15 7 15 15 0 8 -7 15 -15 15 -8 0
-15 -7 -15 -15z"/>
<path d="M1273 788 c2 -8 16 -12 31 -10 16 2 26 0 23 -5 -3 -4 18 -9 47 -10
l51 -2 -70 19 c-84 23 -88 24 -82 8z"/>
<path d="M1350 729 c0 -5 5 -7 10 -4 6 3 10 8 10 11 0 2 -4 4 -10 4 -5 0 -10
-5 -10 -11z"/>
<path d="M1285 710 c3 -5 8 -10 11 -10 2 0 4 5 4 10 0 6 -5 10 -11 10 -5 0 -7
-4 -4 -10z"/>
<path d="M3275 609 c-4 -6 -5 -12 -2 -15 2 -3 7 2 10 11 7 17 1 20 -8 4z"/>
</g>
</svg>
